Coordinates
version=1
nRows=7
nColumns=63
inDegrees=yes

Units are S.I. units (second, meters, Newtons, ...)
If the header above contains a line with 'inDegrees', this indicates whether rotational values are in degrees (yes) or radians (no).

endheader
time	pelvis_tilt	pelvis_list	pelvis_rotation	pelvis_tx	pelvis_ty	pelvis_tz	hip_flexion_r	hip_adduction_r	hip_rotation_r	knee_angle_r	knee_angle_r_beta	ankle_angle_r	subtalar_angle_r	mtp_angle_r	hip_flexion_l	hip_adduction_l	hip_rotation_l	knee_angle_l	knee_angle_l_beta	ankle_angle_l	subtalar_angle_l	mtp_angle_l	L5_S1_Flex_Ext	L5_S1_Lat_Bending	L5_S1_axial_rotation	L4_L5_Flex_Ext	L4_L5_Lat_Bending	L4_L5_axial_rotation	L3_L4_Flex_Ext	L3_L4_Lat_Bending	L3_L4_axial_rotation	L2_L3_Flex_Ext	L2_L3_Lat_Bending	L2_L3_axial_rotation	L1_L2_Flex_Ext	L1_L2_Lat_Bending	L1_L2_axial_rotation	L1_T12_Flex_Ext	L1_T12_Lat_Bending	L1_T12_axial_rotation	Abs_r3	Abs_r2	Abs_r1	Abs_t1	Abs_t2	neck_flexion	neck_bending	neck_rotation	arm_flex_r	arm_add_r	arm_rot_r	elbow_flex_r	pro_sup_r	wrist_flex_r	wrist_dev_r	arm_flex_l	arm_add_l	arm_rot_l	elbow_flex_l	pro_sup_l	wrist_flex_l	wrist_dev_l
      0.00000000	     -0.78477504	     -4.92284809	     91.55901133	      0.25223535	      0.87821130	      0.67739883	      1.89945776	      0.00256150	     -7.40930080	      2.31114253	      0.04033705	     19.10580554	     -6.39545256	      0.00000000	      1.40940669	     -0.77852957	      9.12681527	      0.35556291	      0.00620574	     24.71541379	     -7.33135574	      0.00000000	      0.09607986	     -0.15516732	      0.53197276	      0.17842991	     -0.20637253	      0.56522106	      0.15784960	     -0.37727382	      0.56522106	      0.10980967	     -0.37727382	      0.46547616	      0.08921976	     -0.31641720	      0.43222787	      0.05490003	     -0.24035418	      0.39897957	      0.68628883	     -1.75528374	      2.95867289	      0.00000000	      0.00000000	     23.07834066	      2.89627440	      0.89339580	      9.40082936	     -8.18927084	    -13.58264264	    123.52259652	     83.57545897	    -21.58531596	      6.24199407	      5.44368998	     -7.66833389	    -17.63660227	    113.97872095	     82.98714233	    -12.65991244	     10.06784476
      0.01694915	     -0.86569907	     -4.79408785	     91.19458845	      0.25284854	      0.87875363	      0.67565982	      1.90864524	      0.02276575	     -6.09999291	      2.45850741	      0.04290905	     20.99125822	     -6.04002773	      0.00000000	      1.18655192	     -0.73479818	      9.59006930	      0.28890294	      0.00504231	     23.59088936	     -8.79302386	      0.00000000	      0.10882669	     -0.16291127	      0.66783489	      0.20210206	     -0.21667199	      0.70957457	      0.17879138	     -0.39610246	      0.70957457	      0.12437803	     -0.39610246	      0.58435552	      0.10105647	     -0.33220866	      0.54261584	      0.06218357	     -0.25234956	      0.50087616	      0.77733820	     -1.84288488	      3.71429728	      0.00000000	      0.00000000	     22.73031257	      2.58249191	      0.40842368	      9.82610747	     -8.46711997	    -13.51069252	    122.04168141	     85.03673890	    -19.43845426	      3.96634343	      5.76893979	     -6.81344213	    -16.18359729	    112.27712716	     77.71196531	    -10.78792064	      9.04814146
      0.03389831	     -0.90621674	     -4.61954374	     91.11932233	      0.25323088	      0.87912486	      0.67431948	      1.82845370	      0.07037907	     -5.26038380	      2.57767890	      0.04498898	     22.30349848	     -6.03346780	      0.00000000	      0.95441863	     -0.71991464	     10.38644842	      0.26467292	      0.00461941	     22.78179893	    -10.34076764	      0.00000000	      0.10859218	     -0.16400940	      0.68725787	      0.20166654	     -0.21813250	      0.73021149	      0.17840609	     -0.39877244	      0.73021149	      0.12411000	     -0.39877244	      0.60135064	      0.10083870	     -0.33444796	      0.55839702	      0.06204957	     -0.25405055	      0.51544341	      0.77566308	     -1.85530708	      3.82232212	      0.00000000	      0.00000000	     22.43492323	      2.59280032	      0.71377649	     10.29359318	     -8.83330306	    -13.10352995	    121.21712810	     84.89791879	    -17.44358310	      4.53118605	      6.11311725	     -6.43223540	    -14.92184696	    110.66625421	     72.99433463	     -9.44969397	      7.55026268
      0.05084746	     -0.90185813	     -4.42533730	     91.06054711	      0.25363468	      0.87932647	      0.67310646	      1.70438822	      0.16638913	     -4.65861401	      2.69283805	      0.04699889	     23.16028032	     -6.32177828	      0.00000000	      0.68385049	     -0.74384539	     10.71935948	      0.24963125	      0.00435689	     22.47050015	    -11.18681698	      0.00000000	      0.10168497	     -0.15812781	      0.67518895	      0.18883916	     -0.21030999	      0.71738826	      0.16705824	     -0.38447197	      0.71738826	      0.11621576	     -0.38447197	      0.59079033	      0.09442467	     -0.32245424	      0.54859102	      0.05810279	     -0.24493998	      0.50639171	      0.72632560	     -1.78877346	      3.75519837	      0.00000000	      0.00000000	     22.26651665	      2.59198529	      1.24144881	     10.66455286	     -9.30623440	    -12.46320233	    120.80695152	     84.49506928	    -15.99091184	      6.18621102	      6.49482057	     -6.29789509	    -13.84003067	    109.36012635	     71.17468532	     -9.18909125	      6.65987986
      0.06779661	     -0.92664352	     -4.32994685	     91.14918370	      0.25399176	      0.87935691	      0.67214948	      1.65046679	      0.20340923	     -4.42685928	      2.78842315	      0.04866716	     23.74380802	     -6.43327023	      0.00000000	      0.53110041	     -0.73456120	     10.67881292	      0.24974300	      0.00435884	     22.46502159	    -11.25581630	      0.00000000	      0.10648048	     -0.16410513	      0.63080790	      0.19774490	     -0.21825983	      0.67023339	      0.17493678	     -0.39900522	      0.67023339	      0.12169654	     -0.39900522	      0.55195691	      0.09887778	     -0.33464319	      0.51253142	      0.06084295	     -0.25419885	      0.47310593	      0.76057944	     -1.85639009	      3.50836430	      0.00000000	      0.00000000	     22.17593059	      2.64528288	      1.34901175	     10.86504910	     -9.85244939	    -11.54206257	    120.37355222	     84.29839197	    -15.57066588	      6.79929514	      6.87517495	     -6.34674512	    -12.97211541	    108.38331295	     71.10964861	     -9.11816722	      6.74565673
      0.08474576	     -0.88223577	     -4.05431545	     91.15743412	      0.25444247	      0.87946802	      0.67105722	      1.39873779	      0.34399474	     -3.34566898	      2.90849363	      0.05076279	     23.67753915	     -8.16021050	      0.00000000	      0.15150279	     -0.80298127	     10.56376184	      0.24821236	      0.00433212	     22.74401286	    -11.21911638	      0.00000000	      0.07895580	     -0.15110949	      0.61165611	      0.14662882	     -0.20097562	      0.64988462	      0.12971648	     -0.36740761	      0.64988462	      0.09023858	     -0.36740761	      0.53519910	      0.07331836	     -0.30814247	      0.49697059	      0.04511534	     -0.23406860	      0.45874209	      0.56397338	     -1.70938074	      3.40184781	      0.00000000	      0.00000000	     22.16765146	      2.57559401	      2.11863068	     10.96945147	    -10.17772873	    -11.47718529	    120.66228803	     81.13610329	    -12.04311900	     10.99088633	      7.15987665	     -6.58689386	    -11.94691329	    107.39690587	     70.82262751	     -9.27366182	      5.86202232
      0.10169492	     -0.83922688	     -3.90624206	     91.25512071	      0.25488329	      0.87946504	      0.67013604	      1.23959668	      0.46207014	     -2.69929251	      2.97068755	      0.05184828	     23.54644509	     -9.39283488	      0.00000000	     -0.06742501	     -0.87241458	     10.32437693	      0.25413356	      0.00443547	     23.15595021	    -10.74309798	      0.00000000	      0.06348481	     -0.14459247	      0.58913421	      0.11789765	     -0.19230799	      0.62595510	      0.10429920	     -0.35156214	      0.62595510	      0.07255679	     -0.35156214	      0.51549244	      0.05895200	     -0.29485297	      0.47867155	      0.03627522	     -0.22397374	      0.44185066	      0.45346567	     -1.63565899	      3.27658776	      0.00000000	      0.00000000	     22.25061423	      2.49385328	      2.44810335	     10.98604272	    -10.66042461	    -10.94512651	    120.73490159	     78.28568914	    -10.38081840	     13.02072370	      7.09548712	     -6.79016715	    -11.23745873	    106.98071730	     72.49884769	     -9.36762587	      6.03938987
